<svg xmlns="http://www.w3.org/2000/svg" viewBox="0 0 1320 500"><defs><style>.a2da6195-4a18-43ce-b0a8-a4932f4f24e9{isolation:isolate;}.\32 13224e3-fa9d-48f2-b2b8-93d981b3ed15{fill:#5d6b73;}.bdf337c3-f354-413f-aa0a-9a3040aba903{fill:#74d955;mix-blend-mode:multiply;}</style></defs><title>clarolab</title><g class="a2da6195-4a18-43ce-b0a8-a4932f4f24e9"><g id="145baba4-cb41-4301-93be-4e7e29bba426" data-name="Capa 1"><path class="213224e3-fa9d-48f2-b2b8-93d981b3ed15" d="M514.42,207.35q-13.3,0-23.13,4.49a42.74,42.74,0,0,0-16.19,12.57,53.28,53.28,0,0,0-9.4,19.37,94.14,94.14,0,0,0-3,24.58,90.31,90.31,0,0,0,3.18,24.58,53.88,53.88,0,0,0,9.69,19.37,43.4,43.4,0,0,0,16.62,12.57q10.13,4.49,24,4.49a72.16,72.16,0,0,0,17.78-2.17A112.7,112.7,0,0,0,550,321.85L553.45,332a79.87,79.87,0,0,1-17.2,6.07,89,89,0,0,1-20.68,2.31q-16.47,0-28.91-5.35A55.27,55.27,0,0,1,466,320a65.31,65.31,0,0,1-12.43-22.84,94.17,94.17,0,0,1-4.2-28.77,97.44,97.44,0,0,1,4.05-28.77,63.71,63.71,0,0,1,12.29-22.84,56.08,56.08,0,0,1,20.38-15q12.15-5.35,28.34-5.35a90,90,0,0,1,19.66,2,97.73,97.73,0,0,1,17.06,5.5L548,214a66.36,66.36,0,0,0-15-4.91A91.23,91.23,0,0,0,514.42,207.35Z"/><path class="213224e3-fa9d-48f2-b2b8-93d981b3ed15" d="M591.32,338.33H578V150.17l13.3-6.71Z"/><path class="213224e3-fa9d-48f2-b2b8-93d981b3ed15" d="M712.17,245.23q0-20.82-9.68-29.2t-27.9-8.39a93.92,93.92,0,0,0-24.72,2.9,86.5,86.5,0,0,0-18.94,7.51l-3.18-9.83a89.65,89.65,0,0,1,20-8.24,94,94,0,0,1,26.89-3.61q25.44,0,38,13.15t12.57,35.71v93.1h-9.54l-3.47-27.47a57.19,57.19,0,0,1-20.81,22q-13,7.8-30.94,7.8a56.53,56.53,0,0,1-17.35-2.6,39,39,0,0,1-14-7.81,35.9,35.9,0,0,1-9.25-12.72,42.45,42.45,0,0,1-3.33-17.35q0-22.55,15.62-33.82t46-11.28h34.11Zm0,21.11H678.06q-26,0-37.45,8.09t-11.42,25.73a31.64,31.64,0,0,0,2.46,13,24.91,24.91,0,0,0,6.8,9.1,28,28,0,0,0,10.12,5.35,41.87,41.87,0,0,0,12.14,1.74,54.09,54.09,0,0,0,22-4.2,49.37,49.37,0,0,0,16.05-11,48.85,48.85,0,0,0,10-15.18A44.14,44.14,0,0,0,712.17,282Z"/><path class="213224e3-fa9d-48f2-b2b8-93d981b3ed15" d="M773.75,338.33h-13.3V198.68h9.83l3.47,27.47a77.7,77.7,0,0,1,8-11.42,57.54,57.54,0,0,1,10-9.4,51,51,0,0,1,11.85-6.5,36.57,36.57,0,0,1,13.3-2.46,41.14,41.14,0,0,1,10.84,1.3,37.18,37.18,0,0,1,8,3l-3.47,12.72a29.36,29.36,0,0,0-6.8-2.89,35.88,35.88,0,0,0-10-1.16,35,35,0,0,0-24,9,85.69,85.69,0,0,0-17.64,22.27Z"/><path class="213224e3-fa9d-48f2-b2b8-93d981b3ed15" d="M903.28,196.37q15.9,0,27.62,5.35a53,53,0,0,1,19.51,15,65.72,65.72,0,0,1,11.71,22.84,107.8,107.8,0,0,1,0,57.54A65.63,65.63,0,0,1,950.41,320a52.78,52.78,0,0,1-19.51,15q-11.71,5.36-27.62,5.35T875.67,335a52.78,52.78,0,0,1-19.51-15,65.63,65.63,0,0,1-11.71-22.84,107.8,107.8,0,0,1,0-57.54,65.72,65.72,0,0,1,11.71-22.84,53,53,0,0,1,19.51-15Q887.39,196.37,903.28,196.37Zm0,133q13,0,22.41-4.49A40,40,0,0,0,941,312.31a56.26,56.26,0,0,0,8.81-19.37,105.62,105.62,0,0,0,0-49.16A56.26,56.26,0,0,0,941,224.41a40.15,40.15,0,0,0-15.33-12.57q-9.41-4.49-22.41-4.49t-22.4,4.49a40,40,0,0,0-15.33,12.57,55.89,55.89,0,0,0-8.81,19.37,105.62,105.62,0,0,0,0,49.16,55.89,55.89,0,0,0,8.81,19.37,39.82,39.82,0,0,0,15.33,12.57Q890.27,329.37,903.28,329.37Z"/><path class="213224e3-fa9d-48f2-b2b8-93d981b3ed15" d="M1006.21,338.33h-13.3V150.17l13.3-6.71Z"/><path class="213224e3-fa9d-48f2-b2b8-93d981b3ed15" d="M1127.06,245.23q0-20.82-9.68-29.2t-27.9-8.39a93.92,93.92,0,0,0-24.72,2.9,86.5,86.5,0,0,0-18.94,7.51l-3.18-9.83a89.65,89.65,0,0,1,19.95-8.24,94,94,0,0,1,26.89-3.61q25.44,0,38,13.15t12.57,35.71v93.1h-9.54l-3.47-27.47a57.19,57.19,0,0,1-20.81,22q-13,7.8-30.94,7.8A56.53,56.53,0,0,1,1058,338a39,39,0,0,1-14-7.81,35.9,35.9,0,0,1-9.25-12.72,42.45,42.45,0,0,1-3.33-17.35q0-22.55,15.62-33.82t46-11.28h34.11Zm0,21.11H1093q-26,0-37.45,8.09t-11.42,25.73a31.64,31.64,0,0,0,2.46,13,24.91,24.91,0,0,0,6.8,9.1,28,28,0,0,0,10.12,5.35,41.87,41.87,0,0,0,12.14,1.74,54.09,54.09,0,0,0,22-4.2,49.37,49.37,0,0,0,16-11,48.67,48.67,0,0,0,10-15.18,44.14,44.14,0,0,0,3.47-17.06Z"/><path class="213224e3-fa9d-48f2-b2b8-93d981b3ed15" d="M1238.37,340.64q-17.64,0-29.92-8.09a60.44,60.44,0,0,1-19.81-21.69l-3.47,27.47h-9.83V150.17l13.3-6.71v82.69a79.93,79.93,0,0,1,8.53-10.55,59.61,59.61,0,0,1,11.71-9.54,68.84,68.84,0,0,1,14.75-6.94,54.54,54.54,0,0,1,17.63-2.75,51.91,51.91,0,0,1,21.54,4.48,47.56,47.56,0,0,1,17.35,13.44q7.38,9,11.57,22.41t4.19,31.37q0,19.38-4.48,33.11t-12.29,22.55a46.67,46.67,0,0,1-18.22,12.86A61.63,61.63,0,0,1,1238.37,340.64Zm-1.16-11.85a45.87,45.87,0,0,0,16.63-3.18,37.18,37.18,0,0,0,14.6-10.41q6.36-7.23,10.26-18.79t3.91-28.34q0-15.9-3.33-27.18a55.12,55.12,0,0,0-9-18.5,34.91,34.91,0,0,0-13.44-10.7,40.21,40.21,0,0,0-16.48-3.47,52.48,52.48,0,0,0-28.77,8.39q-13.17,8.38-23,24V277a59.81,59.81,0,0,0,3,18.8,50.64,50.64,0,0,0,9.11,16.62A45.12,45.12,0,0,0,1216,324.31,47.59,47.59,0,0,0,1237.21,328.79Z"/><path class="bdf337c3-f354-413f-aa0a-9a3040aba903" d="M224.62,201.09C166.37,95.08,79.24,39.06,20.24,8.66c0,0,36.55,30.8,85.19,78.07,56.61,66.71,75,129.26,80.66,155.92,0-.06-3.25-6.43-14.59-16.31-11-9.62-30.06-22.55-43.59-36.18-21.7-21.86-38.19-47.61-40.09-51.45C68.17,99,57.37,67.39,45.78,55.81S10.41,18.09,10.41,18.09s25.22,42,35,68.76c8.45,23.13,26.34,51.87,48,78.53,28.72,35.37,72.12,67.09,92.71,77.27.69,3.28,1.19,6,1.54,8.15C114.47,357.27,91.1,446.22,71.31,491.93c0,0,61.55-117.52,121.8-173.67,21.37-19.91,50.36-38,54.49-40.54,29.13,69.11,35.88,126.2,35.88,126.2-4.3-49-13.83-92.27-27-130.63,92.73-48.48,86.34-124.72,104.8-156.19,0,0,19.65-40.86,46.37-67.58a184.38,184.38,0,0,1,16.61-15C390.58,51.46,305,101.14,224.62,201.09Zm-117.94,217s43.88-92.93,116.64-190.19c7.66,13.7,14.39,27.35,20.29,40.63C175.25,298.15,106.68,418.06,106.68,418.06Zm235-281.32c-14.17,88.29-88.1,128.12-88.14,128.13a463.72,463.72,0,0,0-21.09-49C274.84,160.85,326.28,105.56,384.06,66,384.06,66,345.61,111.94,341.63,136.74Z"/></g></g></svg>