<?xml version="1.0" encoding="UTF-8" standalone="no"?>
<svg
   xmlns:dc="http://purl.org/dc/elements/1.1/"
   xmlns:cc="http://creativecommons.org/ns#"
   xmlns:rdf="http://www.w3.org/1999/02/22-rdf-syntax-ns#"
   xmlns:svg="http://www.w3.org/2000/svg"
   xmlns="http://www.w3.org/2000/svg"
   xmlns:sodipodi="http://sodipodi.sourceforge.net/DTD/sodipodi-0.dtd"
   xmlns:inkscape="http://www.inkscape.org/namespaces/inkscape"
   height="24"
   viewBox="0 0 24 24"
   width="24"
   fill="#7fbf7f"
   version="1.1"
   id="svg3833"
   sodipodi:docname="FlakyTestGreyIcon.svg"
   inkscape:version="0.92.3 (2405546, 2018-03-11)">
  <metadata
     id="metadata3839">
    <rdf:RDF>
      <cc:Work
         rdf:about="">
        <dc:format>image/svg+xml</dc:format>
        <dc:type
           rdf:resource="http://purl.org/dc/dcmitype/StillImage" />
        <dc:title />
      </cc:Work>
    </rdf:RDF>
  </metadata>
  <defs
     id="defs3837" />
  <sodipodi:namedview
     pagecolor="#ffffff"
     bordercolor="#666666"
     borderopacity="1"
     objecttolerance="10"
     gridtolerance="10"
     guidetolerance="10"
     inkscape:pageopacity="0"
     inkscape:pageshadow="2"
     inkscape:window-width="1299"
     inkscape:window-height="704"
     id="namedview3835"
     showgrid="false"
     inkscape:zoom="27.812867"
     inkscape:cx="9.1314339"
     inkscape:cy="11.544233"
     inkscape:window-x="67"
     inkscape:window-y="27"
     inkscape:window-maximized="1"
     inkscape:current-layer="svg3833" />
  <path
     d="M0 0h24v24H0zm0 0h24v24H0zm0 0h24v24H0z"
     fill="none"
     id="path3829" />
  <path
     d="M18 14c0-4-6-10.8-6-10.8s-1.33 1.51-2.73 3.52l8.59 8.59c.09-.42.14-.86.14-1.31zm-.88 3.12L12.5 12.5 5.27 5.27 4 6.55l3.32 3.32C6.55 11.32 6 12.79 6 14c0 3.31 2.69 6 6 6 1.52 0 2.9-.57 3.96-1.5l2.63 2.63 1.27-1.27-2.74-2.74z"
     id="path3831"
     fill="#b2ecb7" />
  <rect
     id="rect3841"
     width="2.2056904"
     height="20.630041"
     x="0.0012047078"
     y="-28.082947"
     style="fill:#b2ecb7;stroke-width:1.26680565"
     transform="matrix(-0.70722107,0.70699247,-0.70722107,-0.70699247,0,0)" />
  <path
     style="fill:#333333;stroke-width:0.03595458"
     d="m 16.949397,20.06172 -1.317974,-1.317973 -0.138125,0.108846 c -0.683566,0.538668 -1.78113,0.967442 -2.793597,1.091345 -0.493037,0.06034 -1.41125,0.02399 -1.874806,-0.07421 C 8.4579467,19.368303 6.6734982,17.606321 6.1456932,15.249438 6.0349426,14.754888 5.9920817,13.818757 6.0590754,13.357607 6.1666018,12.617452 6.458766,11.71174 6.9059921,10.732156 L 7.1298685,10.241787 5.4269489,8.5391508 3.7240294,6.8365143 4.4876684,6.0722552 c 0.4200014,-0.4203425 0.777788,-0.7642591 0.7950814,-0.7642591 0.048475,0 14.5487672,14.4977559 14.5487672,14.5462229 0,0.04436 -1.494017,1.525475 -1.538761,1.525475 -0.01396,0 -0.618474,-0.593088 -1.343359,-1.317974 z"
     id="path3714"
     inkscape:connector-curvature="0" />
  <path
     style="fill:#666666;stroke-width:0.03595458"
     d="M 13.559484,10.990861 9.2848026,6.7160666 9.6674009,6.1828156 C 10.329732,5.2596841 11.775726,3.424334 11.963413,3.2685674 c 0.04311,-0.035778 0.131982,0.053244 0.52086,0.5217467 2.000477,2.4100818 3.750646,5.0432895 4.613463,6.9411609 0.612541,1.34736 0.874954,2.327672 0.87734,3.27753 0.0012,0.477563 -0.05947,1.105082 -0.117235,1.212587 -0.01485,0.02764 -1.616785,-1.549088 -4.298357,-4.230731 z"
     id="path3716"
     inkscape:connector-curvature="0" />
  <path
     style="fill:#4d4d4d;stroke-width:0.03595458"
     d="m 16.956028,20.032275 c -1.250018,-1.25037 -1.314495,-1.308944 -1.384066,-1.257348 -0.750426,0.556531 -1.572928,0.912138 -2.535861,1.096376 -0.373181,0.0714 -0.488814,0.07719 -1.186501,0.05936 -0.845227,-0.0216 -1.064426,-0.05572 -1.689865,-0.263056 C 8.1095428,18.987954 6.6189452,17.325423 6.1501242,15.195506 6.0556944,14.766499 6.0349236,13.537469 6.1151587,13.126558 6.2545909,12.412479 6.496768,11.694589 6.9131624,10.76102 L 7.1510778,10.227607 5.4553582,8.5316057 3.7596387,6.8356043 4.5121424,6.0837405 5.2646461,5.3318768 5.5099724,5.5512428 C 5.8934435,5.8941351 19.795563,19.81234 19.795563,19.853362 c 0,0.04611 -1.448071,1.490378 -1.494301,1.490378 -0.01878,0 -0.624131,-0.59016 -1.345234,-1.311465 z"
     id="path3718"
     inkscape:connector-curvature="0" />
  <path
     style="fill:#4d4d4d;stroke-width:0.03595458"
     d="M 18.033788,21.0991 C 17.885476,20.966689 17.28561,20.384233 16.700753,19.804753 l -1.063376,-1.053599 -0.11391,0.06485 c -0.06265,0.03567 -0.114011,0.07698 -0.114136,0.09182 -1.08e-4,0.01483 -0.0245,0.02697 -0.05416,0.02697 -0.02966,0 -0.05393,0.01618 -0.05393,0.03595 0,0.01977 -0.02427,0.03596 -0.05393,0.03596 -0.02966,0 -0.05393,0.01618 -0.05393,0.03595 0,0.01977 -0.02427,0.03595 -0.05393,0.03595 -0.02966,0 -0.05393,0.01713 -0.05393,0.03808 0,0.02094 -0.0148,0.02893 -0.03288,0.01775 -0.01809,-0.01118 -0.03831,-0.0081 -0.04494,0.0069 -0.01171,0.02641 -0.60885,0.332804 -0.648602,0.332804 -0.01091,0 -0.08249,0.02733 -0.159056,0.06074 -0.07657,0.03341 -0.150007,0.06172 -0.163191,0.06292 -0.01318,0.0012 -0.0361,0.01432 -0.05094,0.02915 -0.01483,0.01483 -0.06202,0.02697 -0.104868,0.02697 -0.04285,0 -0.0891,0.0112 -0.102798,0.0249 -0.01369,0.01369 -0.06088,0.03006 -0.104867,0.03637 -0.04398,0.0063 -0.104241,0.02182 -0.133903,0.03447 -0.07335,0.03127 -0.108066,0.04091 -0.233705,0.06491 -0.05933,0.01133 -0.156403,0.0313 -0.215728,0.04438 -0.05932,0.01308 -0.132133,0.0288 -0.161795,0.03493 -0.28982,0.05996 -0.73113,0.0699 -1.384252,0.03116 -0.455538,-0.02702 -0.646383,-0.0507 -0.880887,-0.109327 -0.03955,-0.0099 -0.100223,-0.02463 -0.13483,-0.03276 -0.03461,-0.0081 -0.107414,-0.032 -0.161795,-0.05304 -0.05438,-0.02104 -0.09887,-0.02859 -0.09887,-0.01677 0,0.01182 -0.02427,0.0013 -0.05393,-0.02327 -0.02966,-0.02462 -0.05393,-0.03271 -0.05393,-0.01798 0,0.01473 -0.02022,0.01 -0.04494,-0.01052 -0.02472,-0.02051 -0.05303,-0.03754 -0.06292,-0.03783 -0.0099,-2.88e-4 -0.066516,-0.01945 -0.1258408,-0.04258 -0.059325,-0.02313 -0.1240434,-0.04543 -0.1438184,-0.04955 -0.019775,-0.0041 -0.1027143,-0.04227 -0.1843096,-0.08478 -0.081595,-0.0425 -0.1584483,-0.06718 -0.1707843,-0.05485 -0.012336,0.01234 -0.022429,0.0026 -0.022429,-0.02164 0,-0.02424 -0.016179,-0.03407 -0.035955,-0.02185 -0.019775,0.01222 -0.035954,0.0041 -0.035954,-0.01798 0,-0.02211 -0.01618,-0.0302 -0.035955,-0.01798 -0.019775,0.01222 -0.035955,0.0041 -0.035955,-0.01798 0,-0.02211 -0.01618,-0.0302 -0.035955,-0.01798 -0.019775,0.01222 -0.035955,0.0071 -0.035955,-0.01149 0,-0.01854 -0.052583,-0.05522 -0.1168524,-0.0815 -0.064269,-0.02628 -0.1382324,-0.06869 -0.1643638,-0.09425 -0.026131,-0.02555 -0.070625,-0.04646 -0.098875,-0.04646 -0.02825,0 -0.051364,-0.01618 -0.051364,-0.03595 0,-0.01978 -0.024269,-0.03596 -0.053932,-0.03596 -0.029663,0 -0.053932,-0.01618 -0.053932,-0.03595 0,-0.01977 -0.022539,-0.03595 -0.050085,-0.03595 -0.027547,0 -0.059398,-0.02427 -0.070781,-0.05393 -0.011382,-0.02966 -0.043742,-0.05393 -0.071909,-0.05393 -0.028167,0 -0.060526,-0.02427 -0.071909,-0.05393 -0.011382,-0.02966 -0.036647,-0.05393 -0.056144,-0.05393 -0.041974,0 -0.10746,-0.05922 -0.5291551,-0.478542 -0.3844544,-0.38229 -0.4803359,-0.486381 -0.4803359,-0.521465 0,-0.01468 -0.028314,-0.05342 -0.06292,-0.08609 -0.099257,-0.09369 -0.152807,-0.166146 -0.152807,-0.206753 0,-0.02061 -0.01618,-0.03747 -0.035955,-0.03747 -0.019775,0 -0.035955,-0.02427 -0.035955,-0.05393 0,-0.02966 -0.016179,-0.05393 -0.035955,-0.05393 -0.019775,0 -0.035954,-0.02311 -0.035954,-0.05136 0,-0.02825 -0.022135,-0.0735 -0.049188,-0.100552 -0.027054,-0.02705 -0.060503,-0.08484 -0.074332,-0.12841 -0.013829,-0.04357 -0.037258,-0.07922 -0.052065,-0.07922 -0.031381,0 -0.3541444,-0.70396 -0.3791564,-0.826955 -0.00201,-0.0099 -0.013418,-0.03416 -0.02535,-0.05393 -0.024387,-0.04042 -0.097058,-0.25935 -0.120581,-0.363267 -0.00849,-0.0375 -0.040161,-0.157175 -0.070382,-0.265938 -0.1455145,-0.523695 -0.1756569,-1.928263 -0.051293,-2.390117 0.037045,-0.137576 0.046459,-0.176318 0.08324,-0.342566 0.00877,-0.03962 0.024102,-0.08525 0.034078,-0.101395 0.00998,-0.01614 0.025439,-0.0696 0.034361,-0.118804 0.013391,-0.07385 0.1519584,-0.502648 0.230886,-0.714485 0.011052,-0.02966 0.022889,-0.06202 0.026305,-0.07191 0.049315,-0.142748 0.1280636,-0.329038 0.1861856,-0.440444 0.028372,-0.05438 0.041545,-0.09887 0.029274,-0.09887 -0.012271,0 0.00927,-0.06067 0.047869,-0.13483 0.038599,-0.07416 0.1276566,-0.264266 0.197906,-0.422466 L 7.1352604,10.251751 5.4475399,8.5617453 C 4.5192936,7.6322422 3.7598194,6.853186 3.7598194,6.8305096 c 0,-0.051094 1.4683649,-1.4865589 1.52063,-1.4865589 0.058066,0 7.9006406,7.8158543 12.2335896,12.1919103 l 2.299501,2.322377 -0.107864,0.105259 c -0.05933,0.05789 -0.2373,0.242949 -0.3955,0.411238 -0.245281,0.260922 -0.982012,0.972959 -1.000597,0.967058 -0.0034,-0.0011 -0.127478,-0.110283 -0.275791,-0.242693 z"
     id="path3720"
     inkscape:connector-curvature="0" />
  <path
     style="fill:#666666;stroke-width:0.03595458"
     d="M 13.578523,10.97181 C 11.243364,8.6400169 9.3327796,6.7174766 9.3327796,6.6994981 c 0,-0.1336239 2.5373704,-3.3959521 2.6464344,-3.4025538 0.121007,-0.00732 1.46575,1.6617547 2.445848,3.0357574 2.274249,3.1882776 3.433434,5.6413973 3.525383,7.4605753 0.02088,0.41304 -0.03902,1.262414 -0.09624,1.36465 -0.02277,0.04069 -1.046472,-0.961557 -4.275687,-4.186117 z"
     id="path3722"
     inkscape:connector-curvature="0" />
  <path
     style="fill:#666666;stroke-width:0.03595458"
     d="m 18.015705,21.088316 c -0.158142,-0.140483 -0.759304,-0.725411 -1.335916,-1.29984 l -1.048384,-1.044416 -0.178888,0.131316 c -0.09839,0.07222 -0.196945,0.131316 -0.219015,0.131316 -0.02207,0 -0.04013,0.01618 -0.04013,0.03595 0,0.01977 -0.02292,0.03595 -0.05094,0.03595 -0.02801,0 -0.05633,0.01214 -0.06292,0.02697 -0.01469,0.03304 -0.697311,0.372665 -0.952596,0.47394 -0.516423,0.204872 -1.278761,0.357742 -1.845869,0.370149 -0.54993,0.01203 -1.150319,-0.0289 -1.510092,-0.102959 -0.286142,-0.0589 -0.9640684,-0.275245 -1.1145922,-0.355698 -0.049438,-0.02642 -0.1788741,-0.08961 -0.2876367,-0.140418 -0.1087626,-0.05081 -0.2624684,-0.131458 -0.3415685,-0.179227 -0.0791,-0.04777 -0.1964019,-0.114293 -0.2606707,-0.147832 -0.064269,-0.03354 -0.1168524,-0.07531 -0.1168524,-0.09284 0,-0.01752 -0.020664,-0.03186 -0.045919,-0.03186 -0.025256,0 -0.099062,-0.04854 -0.1640148,-0.107864 -0.064953,-0.05932 -0.1304554,-0.107863 -0.1455621,-0.107863 -0.035324,0 -0.9748236,-0.935323 -0.9748236,-0.97049 0,-0.01457 -0.04828,-0.08127 -0.1072895,-0.148219 C 7.1530243,17.497444 7.1044857,17.423791 7.1041698,17.40072 7.1038534,17.37765 7.0891229,17.35338 7.0714343,17.346788 6.9969686,17.319039 6.6419652,16.66627 6.4667118,16.234845 6.1673384,15.49787 6.0477732,14.838033 6.0503505,13.937096 6.0531139,12.971057 6.3092828,12.069969 7.0427342,10.446332 L 7.1334965,10.245412 5.4466579,8.5588595 C 4.5188967,7.6312558 3.7598194,6.8541266 3.7598194,6.8319057 c 0,-0.051408 1.4618702,-1.487955 1.5141844,-1.487955 0.056925,0 6.5880622,6.4917543 10.8645092,10.7989953 l 3.691869,3.718455 -0.742665,0.741169 c -0.408466,0.407643 -0.752074,0.74117 -0.763573,0.74117 -0.0115,0 -0.150297,-0.114941 -0.308439,-0.255424 z"
     id="path3724"
     inkscape:connector-curvature="0" />
  <path
     style="fill:#808080;stroke-width:0.03595458"
     d="m 18.179101,21.21949 c -0.04562,-0.04856 -0.09462,-0.08497 -0.108888,-0.0809 -0.01427,0.0041 -0.16987,-0.138374 -0.345785,-0.31654 -0.175914,-0.178165 -0.71762,-0.717389 -1.20379,-1.198276 l -0.883945,-0.874339 -0.176715,0.117778 c -0.09719,0.06478 -0.188602,0.134794 -0.203131,0.155593 -0.01646,0.02356 -0.02683,0.02426 -0.02752,0.0019 -7.34e-4,-0.02397 -0.0099,-0.02397 -0.02752,0 -0.01453,0.01977 -0.08709,0.06682 -0.161246,0.104536 -0.07416,0.03772 -0.134829,0.08317 -0.134829,0.100998 0,0.01783 -0.01618,0.02241 -0.03595,0.01019 -0.01978,-0.01222 -0.03595,-0.0041 -0.03595,0.01798 0,0.02211 -0.01618,0.0302 -0.03595,0.01798 -0.01978,-0.01222 -0.03596,-0.0041 -0.03596,0.01798 0,0.02211 -0.01618,0.0302 -0.03595,0.01798 -0.01978,-0.01222 -0.03596,-0.0041 -0.03596,0.01798 0,0.02211 -0.01618,0.0302 -0.03595,0.01798 -0.01977,-0.01222 -0.03595,-0.0041 -0.03595,0.01798 0,0.02211 -0.01618,0.0302 -0.03595,0.01798 -0.01978,-0.01222 -0.03595,-0.0078 -0.03595,0.0099 0,0.01765 -0.02168,0.03208 -0.04818,0.03208 -0.04328,0 -0.303678,0.10898 -0.462351,0.1935 -0.0336,0.0179 -0.112684,0.04163 -0.175736,0.05274 -0.06305,0.01111 -0.14477,0.03632 -0.181596,0.05603 -0.03683,0.01971 -0.06696,0.02519 -0.06696,0.01219 0,-0.013 -0.02171,-0.0056 -0.04825,0.0164 -0.02654,0.02203 -0.05782,0.03048 -0.06952,0.01878 -0.0117,-0.0117 -0.04228,-0.0083 -0.06797,0.0076 -0.02569,0.01588 -0.07126,0.03266 -0.101267,0.03729 -0.03001,0.0046 -0.103102,0.01741 -0.162427,0.02839 -0.05933,0.01097 -0.180672,0.02794 -0.26966,0.0377 -0.08899,0.0098 -0.218424,0.02797 -0.287637,0.04046 -0.152673,0.02755 -0.851923,0.02518 -1.222455,-0.0042 -0.297623,-0.02356 -0.347495,-0.0299 -0.557296,-0.07086 -0.0791,-0.01544 -0.168088,-0.03259 -0.19775,-0.03811 -0.02966,-0.0055 -0.09438,-0.02572 -0.143819,-0.04488 -0.04944,-0.01916 -0.09798,-0.03573 -0.107864,-0.03683 -0.0099,-0.0011 -0.04225,-0.0099 -0.07191,-0.01955 -0.214305,-0.06981 -0.3483899,-0.110162 -0.3893041,-0.117172 -0.1049331,-0.01798 -0.772793,-0.340801 -0.7912791,-0.38248 -0.00663,-0.01496 -0.026857,-0.01804 -0.044943,-0.0069 -0.018086,0.01118 -0.032884,0.0043 -0.032884,-0.01533 0,-0.01961 -0.036404,-0.04647 -0.080898,-0.0597 -0.044494,-0.01322 -0.1375263,-0.06832 -0.2067389,-0.122428 -0.069213,-0.05411 -0.1662899,-0.119551 -0.2157274,-0.145422 -0.049438,-0.02587 -0.1028251,-0.06895 -0.118639,-0.09572 -0.015814,-0.02678 -0.045284,-0.04868 -0.065489,-0.04868 -0.044854,0 -0.027909,0.01558 -0.6042933,-0.555793 -0.258494,-0.256249 -0.4699893,-0.486004 -0.4699893,-0.510567 0,-0.02456 -0.022077,-0.0576 -0.049061,-0.07341 -0.026983,-0.01581 -0.075938,-0.08134 -0.1087871,-0.145605 -0.03285,-0.06427 -0.073603,-0.116853 -0.090564,-0.116853 -0.016961,0 -0.040626,-0.02831 -0.05259,-0.06292 -0.011964,-0.03461 -0.05264,-0.111459 -0.090393,-0.170784 -0.083869,-0.131794 -0.3693515,-0.695968 -0.3589747,-0.70941 0.00411,-0.0053 -0.014706,-0.05013 -0.041816,-0.09957 -0.027109,-0.04944 -0.052506,-0.106066 -0.056437,-0.125841 -0.00393,-0.01977 -0.027623,-0.08449 -0.052648,-0.143819 -0.025025,-0.05933 -0.047104,-0.115953 -0.049064,-0.125841 -0.00196,-0.0099 -0.016405,-0.0382 -0.032101,-0.06292 -0.015696,-0.02472 -0.019276,-0.04494 -0.00796,-0.04494 0.01132,0 -0.00308,-0.05663 -0.031998,-0.125841 -0.028919,-0.06921 -0.046445,-0.125841 -0.038947,-0.125841 0.0075,0 -0.0024,-0.05258 -0.021991,-0.116852 -0.052785,-0.173146 -0.076999,-0.332833 -0.1213052,-0.799989 -0.02387,-0.251682 -0.021347,-1.013961 0.00405,-1.222456 0.034996,-0.287343 0.04073,-0.325097 0.0628,-0.413478 0.012345,-0.04944 0.030704,-0.13438 0.040797,-0.188761 0.040585,-0.218666 0.059025,-0.292319 0.086908,-0.347131 0.016048,-0.03155 0.03837,-0.105897 0.049604,-0.165222 0.011234,-0.05932 0.040471,-0.156403 0.064972,-0.215728 0.024501,-0.05933 0.047925,-0.119998 0.052054,-0.134829 0.00413,-0.01483 0.011552,-0.03506 0.016496,-0.04494 0.00494,-0.0099 0.012367,-0.03011 0.016496,-0.04494 0.00413,-0.01483 0.027982,-0.0755 0.053008,-0.13483 0.025025,-0.05932 0.048717,-0.124043 0.052648,-0.143818 0.00393,-0.01977 0.027163,-0.07236 0.051627,-0.116852 0.024464,-0.04449 0.035447,-0.0809 0.024408,-0.0809 -0.011039,0 0.00378,-0.0364 0.032935,-0.0809 0.029153,-0.04449 0.055986,-0.09708 0.059627,-0.116852 0.00957,-0.05198 0.065932,-0.194357 0.1423251,-0.359546 0.036581,-0.0791 0.1059533,-0.234751 0.1541614,-0.345891 L 7.1312992,10.243106 5.910623,9.0249729 C 5.239251,8.3549996 4.4784147,7.5839459 4.2198755,7.3115204 L 3.7498043,6.8162013 4.4736232,6.0980533 c 0.3981005,-0.3949814 0.7498577,-0.718148 0.7816827,-0.718148 0.031825,0 0.4728442,0.3996555 0.9800426,0.8881233 C 7.0958751,7.0967764 17.138532,17.124311 19.000505,19.013962 l 0.83972,0.852202 -0.72874,0.720811 c -0.400806,0.396445 -0.755895,0.72081 -0.789087,0.72081 -0.03319,0 -0.09767,-0.03973 -0.143297,-0.08829 z"
     id="path15"
     inkscape:connector-curvature="0" />
  <path
     style="fill:#999999;stroke-width:0.03595458"
     d="M 13.578323,10.971915 C 11.243274,8.6397857 9.3328603,6.7147181 9.332959,6.6939866 c 6.316e-4,-0.1327173 2.514695,-3.363134 2.639864,-3.3920628 0.06288,-0.014532 0.359592,0.3130697 0.947124,1.0457089 2.220977,2.7695049 3.899987,5.4836659 4.586515,7.4142113 0.295852,0.831947 0.410253,1.36004 0.443965,2.049411 0.02127,0.434868 -0.03533,1.237872 -0.09473,1.344005 -0.0253,0.04521 -0.903406,-0.813591 -4.277379,-4.183345 z"
     id="path17"
     inkscape:connector-curvature="0" />
  <path
     style="fill:#999999;stroke-width:0.03595458"
     d="m 18.069957,21.119023 c -0.118964,-0.103818 -0.709483,-0.67191 -1.312264,-1.262426 -1.205771,-1.181236 -1.137784,-1.135742 -1.382213,-0.924919 -0.06793,0.05859 -0.132649,0.104202 -0.143818,0.101357 -0.04123,-0.0105 -0.254013,0.120572 -0.254013,0.156475 0,0.02043 -0.01618,0.02715 -0.03595,0.01493 -0.01977,-0.01222 -0.03595,-0.0051 -0.03595,0.01585 0,0.02094 -0.01246,0.03403 -0.0277,0.02909 -0.0444,-0.01441 -0.331848,0.124525 -0.331848,0.16039 0,0.01794 -0.01618,0.02262 -0.03595,0.01039 -0.01978,-0.01222 -0.03595,-0.0041 -0.03595,0.01798 0,0.02211 -0.01434,0.03133 -0.03187,0.0205 -0.01753,-0.01083 -0.13852,0.02866 -0.26887,0.08776 -0.13035,0.0591 -0.252482,0.107461 -0.271403,0.107461 -0.01892,0 -0.07995,0.01847 -0.13562,0.04104 -0.05567,0.02257 -0.125485,0.04458 -0.155147,0.04891 -0.02966,0.0043 -0.175279,0.03348 -0.323591,0.06478 -0.718235,0.151574 -1.709599,0.170767 -2.39098,0.04629 -0.290579,-0.05308 -1.0219484,-0.266392 -1.1519752,-0.33598 -0.038765,-0.02075 -0.08666,-0.04056 -0.1064353,-0.04403 -0.019775,-0.0035 -0.1491011,-0.06574 -0.2873914,-0.138375 -0.1382904,-0.07264 -0.263682,-0.128022 -0.278648,-0.123078 -0.014966,0.0049 -0.027211,-0.0052 -0.027211,-0.0226 0,-0.01738 -0.052584,-0.05286 -0.1168524,-0.07886 -0.064269,-0.02599 -0.1249422,-0.05693 -0.1348297,-0.06876 -0.0099,-0.01181 -0.1716993,-0.136567 -0.359562,-0.277232 -0.3828232,-0.286644 -1.3200813,-1.231665 -1.2706112,-1.281136 0.0071,-0.0071 -0.027695,-0.05673 -0.077329,-0.110289 -0.049634,-0.05356 -0.090243,-0.111372 -0.090243,-0.12848 0,-0.01711 -0.012284,-0.0365 -0.027299,-0.04309 C 6.9534188,17.196371 6.8330513,16.972562 6.7009502,16.7056 6.4634581,16.225652 6.2406853,15.649987 6.2406853,15.516234 c 0,-0.03797 -0.012712,-0.06904 -0.02825,-0.06904 -0.015537,0 -0.029403,-0.02831 -0.030812,-0.06292 -0.00141,-0.03461 -0.024874,-0.208537 -0.052145,-0.386512 -0.072121,-0.470679 -0.065321,-1.610137 0.011802,-1.977502 0.033212,-0.1582 0.070015,-0.336175 0.081785,-0.3955 0.032928,-0.165972 0.036067,-0.177269 0.059932,-0.215728 0.012271,-0.01978 0.041607,-0.108763 0.065191,-0.19775 0.023584,-0.08899 0.1327562,-0.38831 0.2426054,-0.66516 0.1098491,-0.27685 0.2000565,-0.523589 0.2004608,-0.548307 4.045e-4,-0.02472 0.010968,-0.04494 0.023474,-0.04494 0.026469,0 0.1271964,-0.256704 0.1163922,-0.296625 -0.00401,-0.01483 0.00888,-0.02697 0.028657,-0.02697 0.019775,0 0.032628,-0.01213 0.028562,-0.02697 -0.00407,-0.01483 0.020204,-0.07875 0.053932,-0.142033 0.033728,-0.06329 0.061324,-0.144325 0.061324,-0.180086 0,-0.03683 -0.3362204,-0.4000619 -0.7754267,-0.8377295 C 5.9016841,9.0174692 5.1474371,8.2531622 4.6520644,7.744 L 3.7513868,6.8182504 3.8904328,6.6791229 C 3.9669081,6.6026028 4.3011567,6.2783507 4.6332076,5.9585627 L 5.2369364,5.37713 5.3426934,5.452436 c 0.058166,0.041418 0.3244588,0.2865086 0.591761,0.5446456 0.2673022,0.258137 0.486004,0.4632198 0.486004,0.4557396 0,-0.00748 3.0134434,2.9987553 6.6965406,6.6805228 3.683098,3.681769 6.696541,6.70861 6.696541,6.726314 0,0.04117 -1.45294,1.448127 -1.495454,1.448127 -0.01751,0 -0.129165,-0.08494 -0.248129,-0.188762 z"
     id="path19"
     inkscape:connector-curvature="0" />
</svg>
