<?xml version="1.0" encoding="UTF-8" standalone="no"?>
<svg
   xmlns:dc="http://purl.org/dc/elements/1.1/"
   xmlns:cc="http://creativecommons.org/ns#"
   xmlns:rdf="http://www.w3.org/1999/02/22-rdf-syntax-ns#"
   xmlns:svg="http://www.w3.org/2000/svg"
   xmlns="http://www.w3.org/2000/svg"
   xmlns:sodipodi="http://sodipodi.sourceforge.net/DTD/sodipodi-0.dtd"
   xmlns:inkscape="http://www.inkscape.org/namespaces/inkscape"
   height="24"
   viewBox="0 0 24 24"
   width="24"
   fill="#7fbf7f"
   version="1.1"
   id="svg3833"
   sodipodi:docname="FlakyTestIcon3.svg"
   inkscape:version="0.92.4 (f8dce91, 2019-08-02)">
  <metadata
     id="metadata3839">
    <rdf:RDF>
      <cc:Work
         rdf:about="">
        <dc:format>image/svg+xml</dc:format>
        <dc:type
           rdf:resource="http://purl.org/dc/dcmitype/StillImage" />
      </cc:Work>
    </rdf:RDF>
  </metadata>
  <defs
     id="defs3837" />
  <sodipodi:namedview
     pagecolor="#ffffff"
     bordercolor="#666666"
     borderopacity="1"
     objecttolerance="10"
     gridtolerance="10"
     guidetolerance="10"
     inkscape:pageopacity="0"
     inkscape:pageshadow="2"
     inkscape:window-width="1850"
     inkscape:window-height="1016"
     id="namedview3835"
     showgrid="false"
     inkscape:zoom="27.812867"
     inkscape:cx="9.1314339"
     inkscape:cy="11.544233"
     inkscape:window-x="70"
     inkscape:window-y="27"
     inkscape:window-maximized="1"
     inkscape:current-layer="svg3833" />
  <path
     d="M0 0h24v24H0zm0 0h24v24H0zm0 0h24v24H0z"
     fill="none"
     id="path3829" />
  <path
     d="M18 14c0-4-6-10.8-6-10.8s-1.33 1.51-2.73 3.52l8.59 8.59c.09-.42.14-.86.14-1.31zm-.88 3.12L12.5 12.5 5.27 5.27 4 6.55l3.32 3.32C6.55 11.32 6 12.79 6 14c0 3.31 2.69 6 6 6 1.52 0 2.9-.57 3.96-1.5l2.63 2.63 1.27-1.27-2.74-2.74z"
     id="path3831"
     fill="#b2ecb7"/>
  <rect
     id="rect3841"
     width="2.2056904"
     height="20.630041"
     x="0.0012047078"
     y="-28.082947"
     style="fill:#b2ecb7;stroke-width:1.26680565"
     transform="matrix(-0.70722107,0.70699247,-0.70722107,-0.70699247,0,0)" />
</svg>
