<svg xmlns="http://www.w3.org/2000/svg" xmlns:xlink="http://www.w3.org/1999/xlink" style="" version="1.1" xml:space="preserve" width="48" height="48"><rect id="backgroundrect" width="100%" height="100%" x="0" y="0" fill="none" stroke="none"/><g class="currentLayer" style=""><title>Layer 1</title><g id="Padding__x26__Artboard"/><g id="Icons" class="selected" fill="#dadada" fill-opacity="1"><g id="svg_1" fill="#dadada" fill-opacity="1"><path d="M28.71069,9.44849h-9.43262c-0.91553,0-1.68945,0.77344-1.68945,1.68896    c0,0.3327,0.10449,0.65375,0.2854,0.9248h1.09174h10.04358h1.10229c0.07007-0.10571,0.13586-0.21472,0.1806-0.33398    c0.07129-0.18896,0.10742-0.38818,0.10742-0.59082C30.39966,10.2063,29.64185,9.44849,28.71069,9.44849z" style="" id="svg_2" fill="#dadada" fill-opacity="1"/><path d="M32.43774,27.63892c0-0.47021-0.09717-0.94629-0.28125-1.37646    c-0.17773-0.41748-0.44336-0.80762-0.76807-1.12939c-0.24463-0.24268-0.53223-0.45117-0.87891-0.63818    c-0.20215-0.10889-0.41211-0.17285-0.61523-0.23486c-0.1123-0.03418-0.2251-0.06787-0.33252-0.11035    c-0.90479-0.35742-1.6377-0.86035-2.11963-1.45459c-0.15625-0.19189-0.16016-0.36523-0.15381-0.70752l0.00244-0.18115    l-0.00391-7.68896c0.00732-0.02148,0.04541-0.07568,0.10645-0.16309c0.06885-0.10303,0.14453-0.20166,0.22559-0.29492    c0.16357-0.18701,0.34766-0.35107,0.54736-0.4873c0.15869-0.10791,0.32764-0.20117,0.50195-0.27979    c0.11523-0.05176,0.23877-0.07861,0.36133-0.10693l0.09735-0.02295h-1.54437h-7.21539l-1.53168-0.01349    c0.04956,0.01355,0.09711,0.03418,0.14771,0.04279c0.22217,0.0376,0.44092,0.15527,0.62598,0.26562    c0.20508,0.12207,0.3916,0.26514,0.55518,0.42578c0.11523,0.1123,0.2207,0.23535,0.36182,0.4292    c0.0415,0.05469,0.11816,0.15625,0.12598,0.18848l-0.00098,0.64209l0.00146,7.375c0.00293,0.20605,0.00146,0.30908-0.06836,0.4082    c-0.52197,0.73828-1.39941,1.35596-2.3877,1.68896c-0.59473,0.16113-1.14648,0.47705-1.60254,0.91943    c-0.66504,0.6792-1.03174,1.56836-1.03174,2.50439c0,0.06824,0.00555,0.14355,0.01282,0.2157    c-0.00006,0.00195-0.0011,0.00354-0.0011,0.00549c0,0.00354,0.00189,0.00647,0.00201,0.01001    c0.00183,0.01593,0.00037,0.0329,0.00287,0.0481c0.00128,0.00751,0.00891,0.01129,0.01062,0.01862    c0.0166,0.07166,0.05066,0.13477,0.1037,0.18207c0.0069,0.00623,0.01434,0.00909,0.02179,0.01471    c0.05896,0.0451,0.12915,0.0766,0.20911,0.0766h7.14941h0.00269h0.69751h0.52246h0.7002h0.00269h7.0769    c0.07996,0,0.15015-0.03149,0.20911-0.0766c0.00745-0.00562,0.01489-0.00848,0.02179-0.01471    c0.05304-0.0473,0.0871-0.11041,0.1037-0.18207c0.00171-0.00732,0.00934-0.01111,0.01062-0.01862    c0.0025-0.0152,0.00104-0.03217,0.00287-0.0481c0.00012-0.00354,0.00201-0.00647,0.00201-0.01001    c0-0.00195-0.00104-0.00354-0.0011-0.00549C32.43219,27.78247,32.43774,27.70715,32.43774,27.63892z M28.36255,26.05786    c0.19336,0,0.3501,0.15674,0.3501,0.3501s-0.15674,0.3501-0.3501,0.3501h-0.89648c-0.19336,0-0.3501-0.15674-0.3501-0.3501    s0.15674-0.3501,0.3501-0.3501H28.36255z M22.59985,26.05786h3.30811c0.19336,0,0.3501,0.15674,0.3501,0.3501    s-0.15674,0.3501-0.3501,0.3501h-3.30811c-0.19336,0-0.3501-0.15674-0.3501-0.3501S22.40649,26.05786,22.59985,26.05786z" style="" id="svg_3" fill="#dadada" fill-opacity="1"/><path d="M24.29614,29.18372h-0.52246h-0.69751l-0.00269,1.64612c0,0.00409,0.0022,0.00745,0.00232,0.01147    l0.00305,3.92749l0.61719,3.49365c0.02979,0.16699,0.1748,0.28906,0.34473,0.28906h0.00049    c0.16992-0.00049,0.31543-0.12305,0.34424-0.29053l0.61084-3.55322v-3.87793v-1.64612H24.29614z" style="" id="svg_4" fill="#dadada" fill-opacity="1"/></g></g></g></svg>